<svg xmlns="http://www.w3.org/2000/svg" width="1600" height="700" viewBox="0 0 1600 700" role="img" aria-labelledby="title desc">
  <title id="title">Hossain Group HR Turnover Analytics Bangladesh</title>
  <desc id="desc">Corporate project cover showing HR turnover analytics KPIs, dashboard charts and Bangladesh context.</desc>
  <defs>
    <linearGradient id="bg" x1="0" y1="0" x2="1" y2="1">
      <stop offset="0" stop-color="#071d37"/>
      <stop offset="0.55" stop-color="#0d3155"/>
      <stop offset="1" stop-color="#071827"/>
    </linearGradient>
    <linearGradient id="accent" x1="0" y1="0" x2="1" y2="0">
      <stop offset="0" stop-color="#58b84a"/>
      <stop offset="1" stop-color="#9bdc69"/>
    </linearGradient>
    <filter id="shadow" x="-20%" y="-20%" width="140%" height="140%">
      <feDropShadow dx="0" dy="14" stdDeviation="18" flood-color="#000" flood-opacity=".35"/>
    </filter>
  </defs>

  <rect width="1600" height="700" fill="url(#bg)"/>
  <circle cx="1390" cy="90" r="310" fill="#1c527d" opacity=".18"/>
  <circle cx="1480" cy="620" r="260" fill="#4cab47" opacity=".08"/>
  <path d="M0 0h650C540 140 430 198 0 220Z" fill="#f8fafc"/>
  <path d="M0 212c340 0 500-58 650-212h20C516 176 358 237 0 237Z" fill="#58b84a"/>

  <g transform="translate(55 48)">
    <path d="M0 16 33 0v80L0 64Zm42-9 28 15v43L42 80Zm38 15L113 5v65L80 86Z" fill="#0b3157"/>
    <path d="M33 0 42 7v73l-9 5Z" fill="#58b84a"/>
    <text x="138" y="43" font-family="Arial, Helvetica, sans-serif" font-size="42" font-weight="800" fill="#0b3157">HOSSAIN</text>
    <text x="138" y="82" font-family="Arial, Helvetica, sans-serif" font-size="31" font-weight="700" letter-spacing="8" fill="#58b84a">GROUP</text>
    <text x="2" y="130" font-family="Arial, Helvetica, sans-serif" font-size="20" font-weight="600" fill="#173b60">PEOPLE • PERFORMANCE • PROGRESS</text>
  </g>

  <g transform="translate(55 290)">
    <text font-family="Arial, Helvetica, sans-serif" font-size="72" font-weight="900" fill="#fff">HR TURNOVER</text>
    <text y="88" font-family="Arial, Helvetica, sans-serif" font-size="80" font-weight="900" fill="url(#accent)">ANALYTICS</text>
    <line x1="0" y1="135" x2="540" y2="135" stroke="#6cc45b" stroke-width="3"/>
    <text y="185" font-family="Arial, Helvetica, sans-serif" font-size="32" font-weight="700" letter-spacing="13" fill="#fff">BANGLADESH</text>
    <text y="248" font-family="Arial, Helvetica, sans-serif" font-size="25" font-weight="600" fill="#e6edf4">Data-driven insights for smarter</text>
    <text y="282" font-family="Arial, Helvetica, sans-serif" font-size="25" font-weight="600" fill="#e6edf4">people decisions</text>
  </g>

  <g transform="translate(55 625)">
    <rect width="420" height="44" rx="10" fill="#0b2743" stroke="#58b84a"/>
    <circle cx="30" cy="22" r="13" fill="#d71920"/>
    <rect x="20" y="13" width="20" height="18" rx="2" fill="#006a4e"/>
    <circle cx="30" cy="22" r="6" fill="#f42a41"/>
    <text x="58" y="29" font-family="Arial, Helvetica, sans-serif" font-size="20" font-weight="700" fill="#fff">Built for Bangladesh HR Teams</text>
  </g>

  <g transform="translate(650 110)" filter="url(#shadow)">
    <rect width="885" height="510" rx="24" fill="#0a121d"/>
    <rect x="18" y="18" width="849" height="474" rx="12" fill="#f8fafc"/>
    <rect x="18" y="18" width="849" height="58" rx="12" fill="#0b3157"/>
    <text x="48" y="55" font-family="Arial, Helvetica, sans-serif" font-size="23" font-weight="800" fill="#fff">HOSSAIN GROUP | HR TURNOVER DASHBOARD</text>
    <text x="650" y="55" font-family="Arial, Helvetica, sans-serif" font-size="14" font-weight="700" fill="#8bd467">DATA-DRIVEN HR</text>

    <g font-family="Arial, Helvetica, sans-serif">
      <g transform="translate(44 96)">
        <rect width="180" height="82" rx="10" fill="#fff" stroke="#d9e1e8"/>
        <text x="16" y="25" font-size="14" fill="#425466">Opening Headcount</text>
        <text x="16" y="62" font-size="32" font-weight="800" fill="#0b3157">520</text>
      </g>
      <g transform="translate(238 96)">
        <rect width="180" height="82" rx="10" fill="#fff" stroke="#d9e1e8"/>
        <text x="16" y="25" font-size="14" fill="#425466">Closing Headcount</text>
        <text x="16" y="62" font-size="32" font-weight="800" fill="#0b3157">592</text>
      </g>
      <g transform="translate(432 96)">
        <rect width="180" height="82" rx="10" fill="#fff" stroke="#d9e1e8"/>
        <text x="16" y="25" font-size="14" fill="#425466">Total Exits</text>
        <text x="16" y="62" font-size="32" font-weight="800" fill="#d64040">170</text>
      </g>
      <g transform="translate(626 96)">
        <rect width="215" height="82" rx="10" fill="#4cab47"/>
        <text x="16" y="25" font-size="14" fill="#ecffe9">Annualized Turnover</text>
        <text x="16" y="62" font-size="32" font-weight="800" fill="#fff">20.74%</text>
      </g>

      <g transform="translate(44 198)">
        <rect width="385" height="240" rx="12" fill="#fff" stroke="#d9e1e8"/>
        <text x="18" y="29" font-size="17" font-weight="800" fill="#173b60">MONTHLY TURNOVER TREND</text>
        <line x1="45" y1="194" x2="350" y2="194" stroke="#cbd5df"/>
        <line x1="45" y1="60" x2="45" y2="194" stroke="#cbd5df"/>
        <polyline points="55,150 100,165 145,120 190,145 235,162 280,138 335,110" fill="none" stroke="#4cab47" stroke-width="5"/>
        <g fill="#4cab47"><circle cx="55" cy="150" r="6"/><circle cx="100" cy="165" r="6"/><circle cx="145" cy="120" r="6"/><circle cx="190" cy="145" r="6"/><circle cx="235" cy="162" r="6"/><circle cx="280" cy="138" r="6"/><circle cx="335" cy="110" r="6"/></g>
        <text x="55" y="218" font-size="12" fill="#66788a">Jan</text><text x="110" y="218" font-size="12" fill="#66788a">Mar</text><text x="220" y="218" font-size="12" fill="#66788a">May</text><text x="320" y="218" font-size="12" fill="#66788a">Jun</text>
      </g>

      <g transform="translate(445 198)">
        <rect width="396" height="240" rx="12" fill="#fff" stroke="#d9e1e8"/>
        <text x="18" y="29" font-size="17" font-weight="800" fill="#173b60">TURNOVER BY DEPARTMENT</text>
        <g font-size="13" fill="#425466">
          <text x="18" y="72">IT</text><rect x="110" y="58" width="240" height="20" rx="4" fill="#4cab47"/>
          <text x="18" y="108">Admin</text><rect x="110" y="94" width="220" height="20" rx="4" fill="#62bd55"/>
          <text x="18" y="144">Finance</text><rect x="110" y="130" width="200" height="20" rx="4" fill="#76c76b"/>
          <text x="18" y="180">Production</text><rect x="110" y="166" width="184" height="20" rx="4" fill="#8bd181"/>
          <text x="18" y="216">HR</text><rect x="110" y="202" width="120" height="20" rx="4" fill="#a0d997"/>
        </g>
      </g>

      <g transform="translate(44 452)">
        <rect width="250" height="28" rx="8" fill="#fde8e8"/>
        <text x="14" y="20" font-size="15" font-weight="800" fill="#c53030">RISK LEVEL: CRITICAL</text>
      </g>
      <g transform="translate(310 452)">
        <rect width="250" height="28" rx="8" fill="#eaf3fb"/>
        <text x="14" y="20" font-size="15" font-weight="800" fill="#0b3157">PERIOD TURNOVER: 31.11%</text>
      </g>
      <g transform="translate(576 452)">
        <rect width="265" height="28" rx="8" fill="#ecf8e9"/>
        <text x="14" y="20" font-size="15" font-weight="800" fill="#2f7f2c">SMARTER PEOPLE DECISIONS</text>
      </g>
    </g>
  </g>
</svg>
